<?xml version="1.0" encoding="UTF-8"?>
<svg version="1.1" xmlns="http://www.w3.org/2000/svg" width="185" height="31">
<path d="M0 0 C1.25780273 0.33644531 1.25780273 0.33644531 2.54101562 0.6796875 C3.8490918 1.04320313 3.8490918 1.04320313 5.18359375 1.4140625 C6.4974707 1.76597656 6.4974707 1.76597656 7.83789062 2.125 C14.28939732 3.87321429 14.28939732 3.87321429 16.62109375 5.0390625 C17.79704485 8.12268625 17.56417155 10.17092575 16.66015625 13.296875 C16.32371094 14.48216797 16.32371094 14.48216797 15.98046875 15.69140625 C15.738125 16.50738281 15.49578125 17.32335937 15.24609375 18.1640625 C15.01148437 18.98777344 14.776875 19.81148437 14.53515625 20.66015625 C12.80180683 26.67763634 12.80180683 26.67763634 11.62109375 29.0390625 C8.53747 30.2150136 6.4892305 29.9821403 3.36328125 29.078125 C2.17798828 28.74167969 2.17798828 28.74167969 0.96875 28.3984375 C0.15277344 28.15609375 -0.66320313 27.91375 -1.50390625 27.6640625 C-2.32761719 27.42945312 -3.15132812 27.19484375 -4 26.953125 C-10.01748009 25.21977558 -10.01748009 25.21977558 -12.37890625 24.0390625 C-13.55485735 20.95543875 -13.32198405 18.90719925 -12.41796875 15.78125 C-12.19367187 14.99105469 -11.969375 14.20085938 -11.73828125 13.38671875 C-11.37476563 12.16275391 -11.37476563 12.16275391 -11.00390625 10.9140625 C-10.76929688 10.09035156 -10.5346875 9.26664063 -10.29296875 8.41796875 C-8.55961933 2.40048866 -8.55961933 2.40048866 -7.37890625 0.0390625 C-4.09363536 -1.0560278 -3.22792336 -0.87618451 0 0 Z " fill="#3F8EF4" transform="translate(13.37890625,0.9609375)"/>
<path d="M0 0 C3.3 0.66 6.6 1.32 10 2 C10.95507332 6.77536661 11.0013254 7.9960238 9.5625 12.3125 C9.27503906 13.19550781 8.98757812 14.07851563 8.69140625 14.98828125 C8.46324219 15.65214844 8.23507813 16.31601562 8 17 C3.6822542 16.49202991 -0.03302114 15.80317221 -4 14 C-3.53328373 8.58609132 -2.75702189 4.79482068 0 0 Z " fill="#448FF0" transform="translate(12,7)"/>
<path d="M0 0 C1.32 0 2.64 0 4 0 C4 3.96 4 7.92 4 12 C6.31 12 8.62 12 11 12 C11 9.36 11 6.72 11 4 C12.32 4 13.64 4 15 4 C15.12375 4.969375 15.2475 5.93875 15.375 6.9375 C15.58125 7.948125 15.7875 8.95875 16 10 C16.66 10.33 17.32 10.66 18 11 C18 8.69 18 6.38 18 4 C19.32 4 20.64 4 22 4 C22 7.63 22 11.26 22 15 C14.66666667 15 7.33333333 15 0 15 C0 10.05 0 5.1 0 0 Z " fill="#FFFFFF" transform="translate(40,8)"/>
<path d="M0 0 C0 3.63 0 7.26 0 11 C-6.8359375 11.1953125 -6.8359375 11.1953125 -9 11 C-11 9 -11 9 -11.3125 6.0625 C-11 3 -11 3 -10 1.125 C-6.74686316 -0.70488947 -3.68609891 -0.18128355 0 0 Z M-6 4 C-6 4.99 -6 5.98 -6 7 C-5.34 6.34 -4.68 5.68 -4 5 C-4.66 4.67 -5.32 4.34 -6 4 Z " fill="#FFFFFF" transform="translate(74,12)"/>
<path d="M0 0 C0.66 0 1.32 0 2 0 C2 0.99 2 1.98 2 3 C3.65 3 5.3 3 7 3 C7.66 4.32 8.32 5.64 9 7 C9.66 7 10.32 7 11 7 C11.33 5.68 11.66 4.36 12 3 C12.66 3 13.32 3 14 3 C13.39254603 7.85963179 11.27241033 11.7405518 9 16 C8.34 16 7.68 16 7 16 C7.20625 15.071875 7.4125 14.14375 7.625 13.1875 C8.36692966 9.84826598 8.36692966 9.84826598 6 7 C3.94074861 6.27617533 3.94074861 6.27617533 2 6 C2 7.32 2 8.64 2 10 C2.99 10 3.98 10 5 10 C4.67 10.99 4.34 11.98 4 13 C2.68 12.67 1.36 12.34 0 12 C-2.21538462 4.61538462 -2.21538462 4.61538462 -1.125 1.5 C-0.75375 1.005 -0.3825 0.51 0 0 Z " fill="#9C9CA5" transform="translate(104,11)"/>
<path d="M0 0 C1.32 0 2.64 0 4 0 C4.12375 0.969375 4.2475 1.93875 4.375 2.9375 C4.58125 3.948125 4.7875 4.95875 5 6 C5.66 6.33 6.32 6.66 7 7 C7 4.69 7 2.38 7 0 C8.32 0 9.64 0 11 0 C11 3.63 11 7.26 11 11 C4.1640625 11.29296875 4.1640625 11.29296875 2 11 C-0.67927341 6.98108988 -0.15601248 4.75838077 0 0 Z " fill="#FFFFFF" transform="translate(75,12)"/>
<path d="M0 0 C-0.33 0.99 -0.66 1.98 -1 3 C-2.98 3 -4.96 3 -7 3 C-7 4.65 -7 6.3 -7 8 C-4.525 8.99 -4.525 8.99 -2 10 C-2 9.01 -2 8.02 -2 7 C-3.32 7 -4.64 7 -6 7 C-6 6.34 -6 5.68 -6 5 C-3.69 5 -1.38 5 1 5 C1.1875 7.875 1.1875 7.875 1 11 C-2 13 -2 13 -5 12.875 C-8 12 -8 12 -9.9375 10.375 C-11.48100034 6.92482276 -10.93333407 4.60000284 -10 1 C-6.1496895 -1.56687367 -4.41430237 -0.83288724 0 0 Z " fill="#9C9CA5" transform="translate(149,11)"/>
<path d="M0 0 C2.97 0.495 2.97 0.495 6 1 C6 1.66 6 2.32 6 3 C3.03 2.505 3.03 2.505 0 2 C-0.66 4.64 -1.32 7.28 -2 10 C-0.72125 10.144375 0.5575 10.28875 1.875 10.4375 C4.25692894 10.70642746 5.84452691 10.92226346 8 12 C8.33 10.68 8.66 9.36 9 8 C10.25541557 11.76624671 9.37061958 13.37188934 8 17 C3.6822542 16.49202991 -0.03302114 15.80317221 -4 14 C-3.53328373 8.58609132 -2.75702189 4.79482068 0 0 Z " fill="#EAEFF6" transform="translate(12,7)"/>
<path d="M0 0 C1.2684375 0.12375 1.2684375 0.12375 2.5625 0.25 C3.2225 1.24 3.8825 2.23 4.5625 3.25 C3.5725 3.745 3.5725 3.745 2.5625 4.25 C1.5725 3.92 0.5825 3.59 -0.4375 3.25 C-0.7675 3.91 -1.0975 4.57 -1.4375 5.25 C0.5425 5.91 2.5225 6.57 4.5625 7.25 C4.6875 9.625 4.6875 9.625 4.5625 12.25 C3.9025 12.91 3.2425 13.57 2.5625 14.25 C-0.5625 13.875 -0.5625 13.875 -3.4375 13.25 C-3.7675 12.26 -4.0975 11.27 -4.4375 10.25 C-2.1275 10.58 0.1825 10.91 2.5625 11.25 C1.05586217 8.23672434 -1.46916411 7.63943382 -4.4375 6.25 C-3.37788848 0.3464501 -3.37788848 0.3464501 0 0 Z " fill="#9C9CA5" transform="translate(97.4375,9.75)"/>
<path d="M0 0 C0.66 0 1.32 0 2 0 C2 4.62 2 9.24 2 14 C-4 14 -4 14 -7 12 C-7.3125 9 -7.3125 9 -7 6 C-6.34 5.34 -5.68 4.68 -5 4 C-3.68 4 -2.36 4 -1 4 C-0.67 2.68 -0.34 1.36 0 0 Z M-5 7 C-4.67 8.32 -4.34 9.64 -4 11 C-3.01 11 -2.02 11 -1 11 C-1.33 9.35 -1.66 7.7 -2 6 C-3.2236068 5.9254644 -3.2236068 5.9254644 -5 7 Z " fill="#9C9CA5" transform="translate(172,10)"/>
<path d="M0 0 C2.5 0.25 2.5 0.25 4.5 2.25 C4.19728039 3.59061543 3.86162029 4.92405895 3.5 6.25 C3.83 7.24 4.16 8.23 4.5 9.25 C-0.94736842 10.58157895 -0.94736842 10.58157895 -3.375 9.125 C-4.8568671 6.65522151 -4.8633156 5.08386167 -4.5 2.25 C-2.5 0.25 -2.5 0.25 0 0 Z M-0.5 2.25 C-0.83 2.91 -1.16 3.57 -1.5 4.25 C-0.18 3.92 1.14 3.59 2.5 3.25 C1.51 2.92 0.52 2.59 -0.5 2.25 Z " fill="#9C9CA5" transform="translate(179.5,13.75)"/>
<path d="M0 0 C2.5 0.25 2.5 0.25 4.5 2.25 C4.125 5.875 4.125 5.875 3.5 9.25 C1.1875 9.875 1.1875 9.875 -1.5 10.25 C-2.49 9.59 -3.48 8.93 -4.5 8.25 C-4.8125 5.25 -4.8125 5.25 -4.5 2.25 C-2.5 0.25 -2.5 0.25 0 0 Z M-0.5 2.25 C-1.16 2.91 -1.82 3.57 -2.5 4.25 C-1.18 3.92 0.14 3.59 1.5 3.25 C0.84 2.92 0.18 2.59 -0.5 2.25 Z " fill="#9C9CA5" transform="translate(128.5,13.75)"/>
<path d="M0 0 C0.66 0 1.32 0 2 0 C2.33 1.98 2.66 3.96 3 6 C3.99 6.33 4.98 6.66 6 7 C6 4.69 6 2.38 6 0 C6.99 0.33 7.98 0.66 9 1 C9 3.64 9 6.28 9 9 C6.21176345 10.0326802 5.1322726 10.04509293 2.25 9.0625 C1.5075 8.711875 0.765 8.36125 0 8 C0 5.36 0 2.72 0 0 Z " fill="#9C9CA6" transform="translate(151,14)"/>
<path d="M0 0 C0.66 0 1.32 0 2 0 C2 3.63 2 7.26 2 11 C2.66 11 3.32 11 4 11 C4 11.99 4 12.98 4 14 C2.68 13.67 1.36 13.34 0 13 C0 8.71 0 4.42 0 0 Z " fill="#9C9CA5" transform="translate(119,10)"/>
<path d="M0 0 C4.455 0.99 4.455 0.99 9 2 C9 2.66 9 3.32 9 4 C6.36 3.67 3.72 3.34 1 3 C0.67 2.01 0.34 1.02 0 0 Z " fill="#4890ED" transform="translate(10,18)"/>
<path d="M0 0 C0.66 0 1.32 0 2 0 C2 3.3 2 6.6 2 10 C1.34 10 0.68 10 0 10 C0 6.7 0 3.4 0 0 Z " fill="#9C9CA5" transform="translate(161,14)"/>
<path d="M0 0 C1.98 0.495 1.98 0.495 4 1 C4 2.32 4 3.64 4 5 C2.35 5 0.7 5 -1 5 C-0.67 3.35 -0.34 1.7 0 0 Z " fill="#DEE8F3" transform="translate(19,9)"/>
<path d="M0 0 C0.66 0 1.32 0 2 0 C2 0.99 2 1.98 2 3 C1.34 3 0.68 3 0 3 C0 2.01 0 1.02 0 0 Z " fill="#9C9CA4" transform="translate(161,10)"/>
</svg>
